<svg width="10" height="18" viewBox="0 0 10 18" fill="none" xmlns="http://www.w3.org/2000/svg">
<path d="M16.9764 8.17887L8.96889 0.171882C8.85448 0.0573542 8.72287 0 8.57397 0C8.42508 0 8.29322 0.0573542 8.17875 0.171882L0.171881 8.17887C0.0571735 8.29358 0 8.4252 0 8.57415C0 8.72305 0.057354 8.85485 0.171881 8.96931L1.03081 9.82818C1.14533 9.94271 1.27713 9.99994 1.42603 9.99994C1.57492 9.99994 1.70672 9.94271 1.82125 9.82818L8.57397 3.07557L15.3269 9.8286C15.4414 9.94313 15.5733 10 15.7219 10C15.8711 10 16.0029 9.94277 16.1173 9.8286L16.9764 8.96937C17.0908 8.85491 17.1477 8.72305 17.1477 8.57421C17.1478 8.4252 17.0909 8.2934 16.9764 8.17887Z" transform="translate(10) rotate(90)" fill="black"/>
</svg>
