<svg width="176" height="40" viewBox="0 0 176 40" fill="none" xmlns="http://www.w3.org/2000/svg">
<path d="M0 16.1556C0.170059 15.3478 0.340117 14.54 0.510176 13.7535C1.12664 10.7775 1.72185 7.82271 2.31705 4.84668C2.63591 3.31615 2.95477 1.78562 3.25238 0.233832C3.29489 0.0637734 3.33741 0 3.52873 0C4.80417 0 6.10086 0 7.3763 0C7.54636 0 7.61014 0 7.56763 0.212574C7.20625 1.97694 6.84487 3.76255 6.4835 5.52692C6.44098 5.71823 6.41973 5.82452 6.69607 5.82452C8.26912 5.80326 9.82091 5.80326 11.394 5.82452C11.564 5.82452 11.649 5.78201 11.6703 5.61195C12.0317 3.80507 12.393 2.01945 12.7544 0.233832C12.7757 0.0850308 12.8394 0.0212587 13.0095 0.0212587C14.3062 0.0212587 15.6029 0.0212587 16.8784 0.0212587C17.0697 0.0212587 17.1122 0.0850305 17.0697 0.255089C16.2619 4.20896 15.4541 8.16283 14.6463 12.1167C14.37 13.4772 14.0936 14.8164 13.8173 16.1769C12.393 16.1769 10.9688 16.1769 9.5233 16.1769C9.5233 16.0918 9.54456 16.0281 9.54456 15.943C9.94845 13.9448 10.3523 11.9254 10.7562 9.92719C10.7775 9.77839 10.82 9.71462 10.6074 9.71462C8.99187 9.71462 7.39756 9.71462 5.782 9.71462C5.6332 9.71462 5.59069 9.75713 5.54818 9.90594C5.37812 10.7562 5.20805 11.5853 5.03799 12.4143C4.7829 13.6685 4.54907 14.9014 4.29399 16.1556C2.891 16.1556 1.4455 16.1556 0 16.1556Z" transform="translate(74.8472 23.7805)" fill="#1B1A1A"/>
<path d="M9.41598 0C9.41598 0.0637721 9.39472 0.127544 9.39472 0.191316C9.39472 1.63682 9.39472 3.06106 9.39472 4.50656C9.39472 4.69788 9.43724 4.74039 9.62855 4.74039C10.5639 4.74039 11.4567 4.93171 12.307 5.31434C13.6675 5.95206 14.539 7.01493 14.9004 8.46043C15.2192 9.71462 15.2192 10.9688 14.9004 12.223C14.4115 14.0936 13.1573 15.2203 11.3079 15.7092C10.7552 15.858 10.1812 15.943 9.62855 15.943C9.45849 15.943 9.39472 15.9855 9.39472 16.1769C9.39472 17.5373 9.39472 18.9191 9.39472 20.2795C9.39472 20.4921 9.33095 20.5559 9.11838 20.5346C8.05551 20.5134 7.0139 20.5346 5.95103 20.5346C5.75971 20.5346 5.7172 20.4921 5.7172 20.3008C5.7172 18.9403 5.7172 17.5798 5.73845 16.2194C5.73845 15.9855 5.67468 15.943 5.46211 15.943C4.42049 15.9218 3.40014 15.7092 2.48607 15.1778C1.18937 14.455 0.445366 13.3284 0.169021 11.9041C-0.0860679 10.6499 -0.0648079 9.3745 0.317825 8.16283C0.891774 6.41973 2.14596 5.39937 3.88906 4.95297C4.4205 4.82542 4.97319 4.74039 5.52588 4.74039C5.7172 4.74039 5.73845 4.67662 5.73845 4.50656C5.73845 2.99729 5.73845 1.48802 5.73845 0C6.97138 0 8.18305 0 9.41598 0ZM9.16089 10.4161C9.16089 11.3514 9.16089 12.2868 9.16089 13.2221C9.16089 13.4134 9.22466 13.4559 9.39472 13.4347C10.2025 13.3496 10.8402 12.9457 11.2016 12.223C11.7968 11.0751 11.7968 9.90594 11.2654 8.73678C10.904 7.97151 10.2875 7.52511 9.41598 7.41882C9.2034 7.39757 9.16089 7.46134 9.16089 7.65265C9.16089 8.56672 9.16089 9.48079 9.16089 10.4161ZM5.95103 10.4374C5.95103 9.50205 5.95103 8.56672 5.95103 7.6314C5.95103 7.46134 5.90851 7.39757 5.7172 7.41882C4.88816 7.52511 4.25044 7.929 3.88906 8.67301C3.33637 9.79965 3.33637 10.9688 3.84655 12.1167C4.18667 12.882 4.82439 13.3284 5.65343 13.4347C5.84474 13.4559 5.92977 13.4134 5.92977 13.2008C5.95103 12.2655 5.95103 11.3514 5.95103 10.4374Z" transform="translate(82.9263 1.31177)" fill="#1B1A1A"/>
<path d="M9.39068 0C9.39068 1.50927 9.39068 3.01855 9.39068 4.50656C9.39068 4.69788 9.45446 4.74039 9.64577 4.74039C10.5386 4.74039 11.4101 4.91045 12.2179 5.27183C13.6634 5.90955 14.5562 7.01493 14.9389 8.52421C15.2365 9.71462 15.2365 10.9263 14.9389 12.138C14.4287 14.1574 13.0895 15.3053 11.1125 15.773C10.6236 15.8793 10.1347 15.943 9.62451 15.943C9.43319 15.943 9.41193 16.0068 9.41193 16.1769C9.41193 17.5373 9.41193 18.9191 9.41193 20.2795C9.41193 20.4708 9.36942 20.5346 9.15685 20.5346C8.09398 20.5134 7.05237 20.5346 5.9895 20.5346C5.79819 20.5346 5.75567 20.4921 5.75567 20.3008C5.75567 18.9403 5.75567 17.6011 5.75567 16.2406C5.75567 16.0281 5.71315 15.943 5.47932 15.943C4.45897 15.9218 3.48113 15.7092 2.58832 15.2415C1.41917 14.6251 0.653897 13.6472 0.292521 12.393C-0.0901113 11.0963 -0.0901074 9.77839 0.250011 8.46043C0.73893 6.56853 2.01437 5.46314 3.86376 4.97422C4.41646 4.82542 4.96915 4.74039 5.52184 4.76165C5.71315 4.76165 5.75567 4.71914 5.75567 4.52782C5.75567 3.10358 5.75567 1.67933 5.75567 0.276346C5.75567 0.191316 5.73441 0.106287 5.77693 0.0212574C6.96734 0 8.17901 0 9.39068 0ZM5.96824 10.4161C5.96824 9.48079 5.96824 8.54546 5.96824 7.61014C5.96824 7.41882 5.90447 7.37631 5.73441 7.39756C5.07543 7.48259 4.56526 7.75894 4.14011 8.26912C3.26856 9.3745 3.26856 11.4577 4.16137 12.5631C4.56526 13.0733 5.09669 13.3496 5.75567 13.4134C5.92573 13.4347 5.96824 13.3921 5.96824 13.2008C5.96824 12.2868 5.96824 11.3514 5.96824 10.4161ZM9.17811 10.4374C9.17811 11.3514 9.19936 12.2655 9.17811 13.1583C9.17811 13.4134 9.26314 13.4559 9.47571 13.4134C10.3685 13.2859 10.9637 12.7757 11.3251 11.9892C11.6865 11.1601 11.729 10.2886 11.5164 9.41702C11.2401 8.24786 10.4536 7.50385 9.39068 7.39756C9.19936 7.37631 9.15685 7.41882 9.15685 7.61014C9.17811 8.56672 9.17811 9.50204 9.17811 10.4374Z" transform="translate(99.2769 1.31177)" fill="#1B1A1A"/>
<path d="M0 16.1343C0.233831 14.9227 0.488922 13.711 0.722753 12.4993C1.38173 9.26822 2.04071 6.05835 2.69969 2.82723C2.86975 1.95568 3.06106 1.08413 3.23112 0.212574C3.27364 0.0212574 3.33741 0 3.50747 0C7.12122 0 10.735 0 14.3487 0C14.54 0 14.6038 0.0212567 14.5613 0.255088C14.3062 1.40299 14.0936 2.52963 13.8598 3.67752C13.8173 3.84758 13.7535 3.91136 13.5835 3.91136C11.4152 3.91136 9.26822 3.91136 7.09997 3.91136C6.86613 3.91136 6.75985 3.95387 6.71733 4.23022C6.61104 4.86794 6.46224 5.50566 6.3347 6.12212C6.29218 6.29218 6.3347 6.3347 6.50476 6.3347C7.50385 6.3347 8.50295 6.31344 9.5233 6.35595C10.3949 6.37721 11.2664 6.52601 12.0317 6.99367C12.9883 7.56762 13.4772 8.46043 13.6047 9.54456C13.9661 12.7544 11.8829 15.4966 8.69427 16.0493C8.41792 16.0918 8.12032 16.0918 7.86523 16.1981C5.25057 16.1343 2.63591 16.1343 0 16.1343ZM6.90865 9.5233C6.50476 9.5233 6.16464 9.5233 5.82452 9.5233C5.69698 9.5233 5.63321 9.56582 5.61195 9.69336C5.42063 10.7137 5.20806 11.7128 4.99548 12.7332C4.97423 12.882 4.99548 12.9032 5.12303 12.9032C5.86704 12.9032 6.61104 12.9245 7.35505 12.8607C8.60924 12.7757 9.35324 11.9466 9.28947 10.7137C9.26822 10.1398 8.9281 9.73588 8.37541 9.60833C7.88649 9.48079 7.35505 9.5233 6.90865 9.5233Z" transform="translate(43.4077 23.802)" fill="#1B1A1A"/>
<path d="M0 0C0.106287 0 0.212574 0 0.340118 0C12.6056 0 24.8711 0 37.1366 0C37.4767 0 37.4767 -2.53408e-08 37.4767 0.340118C37.4767 12.6269 37.4767 24.9349 37.4767 37.2217C37.4767 37.4767 37.413 37.5405 37.1579 37.5405C26.1466 37.5193 15.1353 37.5193 4.12393 37.5193C2.7422 37.5193 1.36047 37.498 0 37.498C0 24.9987 0 12.4993 0 0ZM36.3714 18.7915C36.3926 18.7915 36.3926 18.7915 36.3714 18.7915C36.3926 16.3257 36.3926 13.8386 36.3926 11.3727C36.3926 8.03529 36.3926 4.69788 36.3926 1.38173C36.3926 1.12664 36.3288 1.08413 36.0738 1.08413C24.4885 1.08413 12.882 1.08413 1.27544 1.06287C1.04161 1.06287 0.977839 1.12664 0.977839 1.38173C0.977839 12.9883 0.999097 24.5948 0.977839 36.2013C0.977839 36.4351 1.04161 36.4989 1.27544 36.4989C9.90594 36.4989 18.5364 36.4989 27.1669 36.5202C30.143 36.5202 33.0977 36.5202 36.0738 36.5202C36.3288 36.5202 36.3926 36.4777 36.3926 36.2013C36.3714 30.3768 36.3714 24.5948 36.3714 18.7915Z" transform="translate(0 1.52417)" fill="#1B1A1A"/>
<path d="M0 16.1556C0.0637721 15.5817 0.212574 15.0077 0.318861 14.4338C0.914067 11.4577 1.53053 8.50295 2.12574 5.52692C2.48711 3.76255 2.84848 1.99819 3.20986 0.212574C3.25237 0.0425147 3.31615 0 3.48621 0C4.76165 0 6.01583 0 7.29128 0C7.50385 0 7.56762 0.0425154 7.50385 0.276346C7.05745 2.40208 6.6323 4.50656 6.20715 6.6323C6.20715 6.65356 6.20715 6.67482 6.20715 6.71733C6.4835 6.39847 6.75984 6.10087 7.01493 5.80326C8.67301 3.93261 10.3311 2.04071 11.9892 0.17006C12.0742 0.0637728 12.1592 0 12.308 0C13.8811 0 15.4754 0 17.0484 0C17.0697 0 17.0909 1.29713e-06 17.1547 0.0212587C16.8358 0.361377 16.5382 0.680237 16.2406 0.999097C14.1149 3.27364 11.9892 5.52692 9.86342 7.80146C9.75713 7.929 9.75713 7.99277 9.84216 8.12032C11.2239 10.7562 12.6056 13.4134 13.9873 16.0493C14.0086 16.0706 14.0086 16.1131 14.0299 16.1343C12.2868 16.1343 10.5649 16.1343 8.82181 16.1343C8.82181 16.0918 8.82181 16.0706 8.80055 16.0281C7.7802 13.796 6.73859 11.5853 5.71823 9.35324C5.69697 9.31073 5.69698 9.26821 5.6332 9.28947C5.46315 10.0973 5.29308 10.905 5.12302 11.7341C4.82542 13.2008 4.52782 14.6463 4.23022 16.1131C2.86974 16.1556 1.42424 16.1556 0 16.1556Z" transform="translate(91.9805 23.7805)" fill="#1B1A1A"/>
<path d="M0.0324943 16.1556C-0.0525352 16.0706 0.0537543 16.0281 0.0750116 15.9643C1.69057 12.967 3.32739 9.96971 4.94295 6.97242C6.15462 4.71914 7.38755 2.46586 8.59922 0.212574C8.68425 0.0637721 8.76928 0 8.93934 0C10.5124 0 12.1067 0 13.6797 0C13.8498 0 13.9348 0.0212587 13.9773 0.233832C14.2112 2.147 14.4875 4.06016 14.7426 5.97332C14.9552 7.54637 15.1677 9.14067 15.3803 10.7137C15.5929 12.2868 15.8055 13.8811 16.018 15.4541C16.0393 15.6879 16.0818 15.9218 16.1243 16.1556C14.6151 16.1556 13.1058 16.1556 11.5753 16.1556C11.4902 15.3053 11.4052 14.455 11.3414 13.626C11.3202 13.4347 11.2564 13.3709 11.0651 13.3709C9.49203 13.3709 7.91898 13.3709 6.34594 13.3709C6.15462 13.3709 6.06959 13.4347 6.00582 13.5835C5.55941 14.4338 5.11301 15.2841 4.64535 16.1556C3.09356 16.1556 1.56303 16.1556 0.0324943 16.1556ZM10.5336 3.8901C10.1723 4.63411 9.83214 5.3356 9.49203 6.01584C8.91808 7.20625 8.34413 8.3754 7.77018 9.56582C7.74893 9.62959 7.53635 9.79965 7.83395 9.79965C8.89682 9.79965 9.93843 9.79965 11.0013 9.79965C11.1076 9.79965 11.1501 9.77839 11.1288 9.65085C11.1076 9.56582 11.1288 9.50205 11.1076 9.41702C10.9163 7.61014 10.725 5.78201 10.5336 3.8901Z" transform="translate(57.001 23.7805)" fill="#1B1A1A"/>
<path d="M6.90865 0.0212574C7.24876 0.106287 7.61014 0.148802 7.929 0.255088C9.88468 0.829038 10.9475 2.18951 11.3302 4.12393C11.649 5.71823 11.394 7.22751 10.4799 8.58798C9.69336 9.75713 8.54546 10.3523 7.16373 10.5437C6.20715 10.6712 5.27183 10.6074 4.31525 10.6074C4.12393 10.6074 4.08141 10.6712 4.08141 10.8413C4.08141 12.4143 4.08141 13.9874 4.08141 15.5604C4.08141 15.773 4.01764 15.8155 3.82633 15.8155C2.63591 15.7942 1.4455 15.8155 0.255088 15.8155C0.0637715 15.8155 0 15.773 0 15.5604C0 10.3736 0 5.1868 0 0C2.31705 0.0212574 4.61285 0.0212574 6.90865 0.0212574ZM4.10267 5.29309C4.10267 5.84578 4.10267 6.37721 4.10267 6.9299C4.10267 7.0787 4.12393 7.14248 4.29399 7.14248C4.59159 7.12122 4.91045 7.14248 5.20806 7.14248C5.59069 7.14248 5.97332 7.09996 6.3347 6.95116C6.99368 6.67481 7.33379 5.97332 7.24876 5.10177C7.16373 4.20896 6.75984 3.76256 5.88829 3.57124C5.3356 3.46495 4.76165 3.52872 4.20896 3.52872C4.06016 3.52872 4.10267 3.63501 4.10267 3.72004C4.10267 4.23022 4.10267 4.76165 4.10267 5.29309Z" transform="translate(44.0664 1.29028)" fill="#1B1A1A"/>
<path d="M10.6712 10.905C9.60833 10.905 8.56673 10.8838 7.50386 10.8838C7.01494 10.8838 7.01493 10.8838 7.01493 10.3949C7.01493 9.18319 7.01493 7.97152 7.01493 6.7811C7.01493 6.58979 6.97243 6.52601 6.75985 6.52601C5.80327 6.54727 4.84669 6.52601 3.91136 6.52601C3.72005 6.52601 3.67754 6.56853 3.67754 6.75985C3.67754 8.05655 3.67754 9.35324 3.67754 10.6287C3.67754 10.8413 3.61375 10.905 3.40118 10.905C2.33831 10.8838 1.29671 10.905 0.233839 10.905C0.0637799 10.905 0 10.8625 0 10.6925C0 7.20625 0 3.69878 0 0.212574C0 0.0425147 0.0637721 0 0.212574 0C1.27544 0 2.33831 0 3.40118 0C3.5925 0 3.65627 0.0425145 3.65627 0.255088C3.63501 1.36047 3.65627 2.48711 3.65627 3.5925C3.65627 3.80507 3.72005 3.84758 3.91136 3.84758C4.86794 3.84758 5.82453 3.84758 6.75985 3.84758C6.92991 3.84758 6.99368 3.80507 6.99368 3.61375C6.99368 2.50837 6.99368 1.38173 6.99368 0.276346C6.99368 0.0850293 7.0362 0 7.24877 0C8.37541 0.0212574 9.50205 0 10.65 0C10.6712 3.63501 10.6712 7.27002 10.6712 10.905Z" transform="translate(164.979 6.22192)" fill="#1B1A1A"/>
<path d="M5.92754 0C6.0976 0.170059 6.33142 0.212574 6.54399 0.297603C7.01165 0.48892 7.47932 0.680236 7.94699 0.871552C8.1383 0.935324 8.18081 0.999097 8.07453 1.19041C7.64938 2.06197 7.03292 2.72094 6.14011 3.08232C4.71587 3.67753 3.29161 3.65627 1.86737 3.01855C1.01708 2.63591 0.421875 1.99819 0.039242 1.1479C-0.0245301 0.999097 -0.0245301 0.935324 0.145529 0.871552C0.761993 0.637721 1.3572 0.40389 1.95241 0.148802C2.03743 0.106287 2.16498 0.106287 2.22875 0C2.27126 0 2.29252 0 2.33504 0C2.42006 0.297603 2.52635 0.595206 2.76018 0.829038C3.22785 1.31796 4.0994 1.48802 4.82215 1.21167C5.37484 0.999097 5.6937 0.595206 5.75747 0C5.82124 0 5.88502 0 5.92754 0Z" transform="translate(130.949 1.31177)" fill="#1B1A1A"/>
<path d="M5.86324 0C6.45844 0.297603 7.09617 0.510177 7.71263 0.765265C8.20155 0.977839 8.2228 0.977839 7.94646 1.4455C7.32999 2.52963 6.39467 3.14609 5.183 3.37992C3.86504 3.63501 2.5896 3.50747 1.4417 2.78472C0.803983 2.38083 0.357577 1.82813 0.0387165 1.1479C-0.046313 0.977839 0.0174591 0.935324 0.145003 0.89281C0.782725 0.637721 1.39919 0.382633 2.03691 0.127544C2.10068 0.106287 2.20697 0.106287 2.24948 0C2.292 0 2.31325 0 2.35577 0C2.50457 0.595206 2.82343 1.06287 3.46115 1.25419C3.78002 1.36047 4.09888 1.33921 4.41774 1.31796C5.14049 1.25418 5.73569 0.658979 5.77821 0C5.79946 0 5.82072 0 5.86324 0Z" transform="translate(72.0449 1.31177)" fill="#1B1A1A"/>
<path d="M7.95342 1.58022C7.95342 1.26136 7.97468 0.942502 7.95342 0.623641C7.93216 0.411068 8.01719 0.368553 8.22976 0.368553C9.2076 0.389811 10.1854 0.389811 11.1633 0.368553C11.3971 0.368553 11.4821 0.411068 11.4821 0.666156C11.4821 3.98231 11.4821 7.2772 11.4821 10.5933C11.4821 10.7634 11.4609 10.9122 11.4821 11.0823C11.5034 11.2736 11.4184 11.2948 11.2696 11.2948C10.2492 11.2948 9.22886 11.2948 8.20851 11.2948C8.03845 11.2948 7.97467 11.2523 7.97467 11.0823C7.99593 10.7634 7.97467 10.4445 7.97467 10.0619C7.82587 10.232 7.71959 10.3383 7.61331 10.4658C6.10403 12.1239 3.36182 12.1026 1.74626 10.5296C0.853454 9.67928 0.364534 8.59516 0.151961 7.40474C-0.145643 5.81044 -0.018101 4.21614 0.640878 2.72812C1.25734 1.34639 2.23519 0.368553 3.78698 0.0922071C5.4238 -0.205396 6.84803 0.198494 7.86838 1.58022C7.88964 1.60148 7.88964 1.644 7.9109 1.66525C7.88964 1.60148 7.9109 1.58022 7.95342 1.58022ZM8.08096 6.02301C8.12347 5.61912 8.08096 5.21523 7.95342 4.81134C7.69833 3.89728 6.97558 3.25956 6.10403 3.19578C5.14744 3.13201 4.40344 3.55716 4.02081 4.47123C3.63817 5.40655 3.65944 6.34187 4.10584 7.25594C4.46722 7.97869 5.06241 8.36133 5.89145 8.38258C6.69923 8.40384 7.3157 8.04247 7.71959 7.34097C7.95342 6.95834 8.0597 6.51193 8.08096 6.02301Z" transform="translate(115.658 5.85327)" fill="#1B1A1A"/>
<path d="M7.92963 1.77434C7.92963 1.34919 7.92963 1.00907 7.92963 0.668955C7.92963 0.520153 7.95089 0.456381 8.12095 0.456381C9.16256 0.456381 10.2042 0.456381 11.2245 0.456381C11.3733 0.456381 11.4371 0.498896 11.4371 0.647697C11.4371 4.15516 11.4371 7.66263 11.4371 11.1488C11.4371 11.2976 11.3946 11.3614 11.2458 11.3614C10.2042 11.3614 9.16255 11.3614 8.1422 11.3614C7.97214 11.3614 7.92963 11.3189 7.95089 11.1488C7.97214 10.8087 7.95089 10.4899 7.95089 10.1497C7.90837 10.1285 7.88712 10.1497 7.86586 10.171C6.29281 12.318 2.82786 12.2755 1.14853 9.89465C0.553321 9.04436 0.213203 8.10904 0.0856586 7.08868C-0.105658 5.60067 0.000630478 4.11265 0.638352 2.73092C1.27607 1.30668 2.29642 0.328837 3.89073 0.0737487C5.12365 -0.117568 6.27155 0.0312339 7.22814 0.902786C7.44071 1.17913 7.67454 1.43422 7.92963 1.77434ZM3.74193 5.9833C3.74193 6.2809 3.78444 6.66353 3.91199 7.02491C4.20959 7.93898 4.84731 8.44915 5.76138 8.51293C6.59042 8.5767 7.37694 8.15155 7.73831 7.34377C8.18472 6.36593 8.18472 5.36683 7.6958 4.41025C7.33443 3.6875 6.6967 3.32613 5.86767 3.32613C5.05989 3.32613 4.46468 3.6875 4.06079 4.38899C3.82696 4.85666 3.74193 5.36683 3.74193 5.9833Z" transform="translate(56.7563 5.74438)" fill="#1B1A1A"/>
<path d="M3.69879 5.76075C3.76256 5.65446 3.82632 5.56943 3.8901 5.46314C4.97422 3.72004 6.07961 1.95568 7.16374 0.212574C7.27002 0.0637721 7.37631 0 7.54637 0C8.56672 0 9.56581 0 10.5862 0C10.7562 0 10.82 0.0425148 10.82 0.233831C10.82 3.72004 10.82 7.20625 10.82 10.6925C10.82 10.8625 10.7775 10.9263 10.5862 10.9263C9.5233 10.9263 8.43918 10.9263 7.37631 10.9263C7.18499 10.9263 7.14247 10.8625 7.14247 10.6712C7.14247 8.88558 7.14247 7.07871 7.14247 5.29309C7.14247 5.20806 7.14247 5.12303 7.14247 5.01674C7.03618 5.08051 7.01493 5.16554 6.97242 5.22931C5.86703 7.05745 4.78291 8.88558 3.67752 10.7137C3.59249 10.8625 3.4862 10.9263 3.31614 10.9263C2.29579 10.9263 1.27544 10.9263 0.255091 10.9263C0.0850321 10.9263 0 10.905 0 10.6925C0 7.20625 0 3.72004 0 0.233831C0 0.0425148 0.0637669 8.07737e-08 0.233826 0.0212575C1.29669 0.0212575 2.35956 0.0212575 3.42243 0.0212575C3.63501 0.0212575 3.65627 0.0850293 3.65627 0.276346C3.65627 2.01945 3.65627 3.78381 3.65627 5.52692C3.65627 5.61195 3.65627 5.69698 3.65627 5.76075C3.65627 5.73949 3.67753 5.76075 3.69879 5.76075Z" transform="translate(129.351 6.20093)" fill="#1B1A1A"/>
<path d="M3.65627 5.73949C3.7413 5.69698 3.76255 5.61195 3.80507 5.54817C4.91045 3.76255 6.03709 1.99819 7.12122 0.212574C7.20625 0.0637721 7.31254 0 7.4826 0C8.50295 0 9.50205 0 10.5224 0C10.6925 0 10.7775 0.0212575 10.7775 0.233831C10.7775 3.72004 10.7775 7.20625 10.7775 10.6925C10.7775 10.8625 10.735 10.9263 10.5649 10.9263C9.50205 10.9263 8.41792 10.9263 7.35505 10.9263C7.16374 10.9263 7.12122 10.8838 7.12122 10.6925C7.12122 8.88558 7.12122 7.07871 7.12122 5.29309C7.12122 5.20806 7.12122 5.12303 7.12122 4.97423C6.67481 5.71823 6.24967 6.41973 5.84578 7.09996C5.12303 8.31163 4.40028 9.5233 3.67753 10.735C3.5925 10.8838 3.50747 10.9475 3.31615 10.9475C2.2958 10.9475 1.25419 10.9475 0.233832 10.9475C0.0637734 10.9475 0 10.905 0 10.7137C0 7.22751 0 3.7413 0 0.255089C0 0.0850296 0.0425147 0.0212575 0.212574 0.0212575C1.27544 0.0212575 2.33831 0.0212575 3.40118 0.0212575C3.5925 0.0212575 3.63501 0.0637723 3.63501 0.255089C3.63501 1.99819 3.63501 3.76256 3.63501 5.50566C3.63501 5.56943 3.61376 5.65446 3.65627 5.73949Z" transform="translate(70.4468 6.20093)" fill="#1B1A1A"/>
<path d="M7.26012 6.7301C6.06971 6.7301 4.85804 6.7301 3.66762 6.7301C3.49756 6.7301 3.43379 6.77261 3.45505 6.96393C3.51882 7.878 3.79517 8.68578 4.66672 9.11092C5.36822 9.4723 6.09096 9.40853 6.77119 9.04715C7.13257 8.85584 7.36641 8.53698 7.4727 8.15434C7.51521 8.04806 7.53646 7.98428 7.66401 7.98428C8.72688 7.98428 9.78974 7.98428 10.8526 7.98428C11.0227 7.98428 11.0014 8.04806 10.9589 8.1756C10.2574 10.1951 8.83317 11.3642 6.72869 11.6618C5.75085 11.7894 4.77301 11.7681 3.81643 11.4917C2.00955 10.9603 0.840396 9.7699 0.308961 7.96303C-0.116186 6.49627 -0.116194 5.00825 0.393983 3.54149C1.11673 1.45827 2.60476 0.33163 4.77301 0.0552839C5.81462 -0.0722603 6.83497 0.0127693 7.81281 0.395402C9.3646 1.01187 10.2362 2.22354 10.7251 3.75407C11.0014 4.64688 11.1077 5.56094 11.1077 6.49627C11.1077 6.68758 11.0439 6.7301 10.8526 6.7301C9.6622 6.7301 8.4718 6.7301 7.26012 6.7301ZM5.55954 4.5831C6.09097 4.5831 6.6224 4.5831 7.13257 4.5831C7.64275 4.5831 7.64276 4.5831 7.53647 4.07293C7.23886 2.84 6.26103 2.18102 5.13439 2.43611C4.28409 2.62743 3.58259 3.52024 3.56134 4.4343C3.56134 4.5831 3.62511 4.5831 3.73139 4.5831C4.3266 4.5831 4.94307 4.5831 5.55954 4.5831Z" transform="translate(152.149 5.80542)" fill="#1B1A1A"/>
<path d="M7.21369 5.66005C7.87267 5.85136 8.40411 6.14897 8.78674 6.70166C9.70081 7.99836 9.33942 9.84775 7.97895 10.8256C7.21368 11.3783 6.32088 11.6121 5.40681 11.6759C3.53616 11.8247 1.79306 11.4421 0.156238 10.5067C0.00743602 10.4217 -0.0350735 10.3792 0.0286986 10.1879C0.305044 9.46512 0.560135 8.74237 0.815224 8.01962C0.878996 7.80704 0.964018 7.8283 1.11282 7.93459C1.79306 8.35973 2.49455 8.69985 3.30233 8.80614C3.76999 8.86991 4.23766 8.89117 4.70532 8.78488C4.96041 8.72111 5.19423 8.59356 5.36429 8.35973C5.72567 7.84956 5.5131 7.19058 4.91789 6.99926C4.64155 6.91423 4.3652 6.89297 4.08885 6.89297C3.59993 6.89297 3.11101 6.89297 2.64335 6.89297C2.49455 6.89297 2.45203 6.85046 2.45203 6.70166C2.45203 6.04268 2.45203 5.3837 2.45203 4.70347C2.45203 4.53341 2.49455 4.49089 2.6646 4.49089C3.30233 4.49089 3.94005 4.49089 4.57777 4.46963C5.19423 4.44838 5.53435 4.04449 5.47058 3.47054C5.42807 3.06665 5.19423 2.83282 4.83286 2.72653C4.25891 2.53521 3.68496 2.59899 3.08975 2.72653C2.5158 2.87533 1.96312 3.10916 1.45295 3.42802C1.3254 3.51305 1.28288 3.51305 1.21911 3.36425C0.94276 2.66276 0.666415 1.94001 0.368811 1.23851C0.326297 1.11097 0.326302 1.0472 0.453846 1.00468C2.43078 0.0693588 4.47148 -0.334531 6.59722 0.324447C7.63883 0.643308 8.4041 1.30229 8.61667 2.42893C8.8505 3.68311 8.4041 5.00107 7.25621 5.59628C7.25621 5.61753 7.23495 5.63879 7.21369 5.66005Z" transform="translate(141.694 5.79126)" fill="#1B1A1A"/>
<path d="M35.4148 17.7287C35.4148 23.5319 35.4148 29.3352 35.4148 35.1172C35.4148 35.3935 35.3298 35.436 35.0959 35.436C32.1199 35.436 29.1651 35.436 26.1891 35.436C17.5586 35.436 8.9281 35.4148 0.297603 35.4148C0.0637721 35.4148 0 35.351 0 35.1172C0 23.5107 0 11.9041 0 0.297603C0.0212574 0.0637721 0.0850295 0 0.318861 0C11.9254 0 23.5319 0 35.1384 0C35.3723 0 35.4573 0.0637721 35.4573 0.297603C35.4573 3.63501 35.4573 6.97242 35.4573 10.2886C35.436 12.7757 35.436 15.2628 35.4148 17.7287C35.436 17.7287 35.436 17.7287 35.4148 17.7287ZM34.4369 10.7562C34.4157 10.2461 34.3944 9.82091 34.3094 9.39576C33.9268 7.20625 32.9702 5.31434 31.3334 3.78381C29.1226 1.72185 26.4229 2.08322 24.6373 3.78381C22.8729 5.4844 21.1723 7.24876 19.4292 8.97061C19.323 9.0769 19.3017 9.14067 19.4292 9.24696C19.7906 9.58708 20.1307 9.94845 20.4921 10.3098C20.5984 10.4161 20.5984 10.4586 20.4921 10.5649C20.2583 10.7987 20.0244 11.0326 19.7906 11.2664C19.1316 11.9041 18.4939 12.5631 17.8349 13.2008C17.7499 13.2859 17.6861 13.3284 17.5798 13.2221C16.687 12.3293 15.7942 11.4577 14.9014 10.5649C14.7951 10.4586 14.8164 10.4161 14.9014 10.3311C15.2415 9.99097 15.5817 9.62959 15.943 9.31073C16.1131 9.16193 16.0706 9.0769 15.943 8.9281C15.199 8.18409 14.455 7.44008 13.711 6.69607C12.6907 5.67572 11.7128 4.63411 10.6499 3.65627C9.54456 2.63591 8.20535 2.18951 6.69607 2.4446C5.71823 2.5934 4.86794 3.08232 4.14519 3.7413C2.2958 5.44189 1.33921 7.58888 1.10538 10.0547C1.08413 10.2673 1.04161 10.4799 1.08413 10.6074C1.48802 10.2461 1.91316 9.86342 2.31705 9.45953C2.46586 9.31073 2.55088 9.31073 2.69969 9.45953C4.40028 11.1814 6.12212 12.882 7.82271 14.5826C7.99277 14.7526 8.0778 14.7314 8.2266 14.5826C8.60924 14.1787 8.99187 13.796 9.39576 13.4134C9.5233 13.3071 9.56582 13.1796 9.56582 13.0095C9.56582 11.9892 9.56582 10.9475 9.56582 9.92719C9.56582 9.84216 9.5233 9.75713 9.60833 9.69336C10.0547 10.161 10.5011 10.6074 10.9688 11.0538C11.0751 11.1601 11.1176 11.2664 11.1176 11.4152C11.1176 12.7332 11.1176 14.0511 11.1176 15.3691C11.1176 15.5179 11.1601 15.6454 11.2664 15.7517C11.8829 16.3682 12.4993 16.9846 13.1371 17.6011C13.2859 17.7499 13.3071 17.8137 13.1371 17.9625C12.4568 18.6215 11.7978 19.2804 11.1176 19.9607C8.18409 22.8942 5.22931 25.849 2.2958 28.7825C2.14699 28.9313 2.16825 28.9951 2.2958 29.1439C3.65627 30.5043 5.01674 31.8435 6.37721 33.2253C6.52601 33.3741 6.61104 33.3528 6.73859 33.2253C7.61014 32.3537 8.48169 31.5034 9.33199 30.6319C12.0742 27.8472 14.8164 25.1262 17.5373 22.384C17.6649 22.2565 17.7286 22.2352 17.8774 22.384C18.9828 23.4894 20.0882 24.5948 21.1936 25.7002C23.7232 28.2298 26.2529 30.7594 28.7825 33.2891C28.9313 33.4379 28.9951 33.4591 29.1651 33.2891C30.5043 31.9286 31.8648 30.5894 33.204 29.2501C33.3741 29.0801 33.3741 28.9951 33.204 28.825C29.569 25.19 25.934 21.555 22.299 17.9412C22.1502 17.7924 22.1502 17.7287 22.299 17.5798C22.9154 16.9846 23.5107 16.3894 24.1059 15.7942C24.2334 15.6667 24.2972 15.5179 24.2972 15.3266C24.2972 14.0299 24.2972 12.7332 24.2972 11.4152C24.2972 11.2664 24.3397 11.1601 24.446 11.0538C24.7648 10.7562 25.0624 10.4374 25.36 10.1398C25.5088 9.99097 25.6576 9.84216 25.849 9.65085C25.849 10.82 25.849 11.9466 25.849 13.052C25.849 13.2008 25.8915 13.3071 25.9978 13.4134C26.4229 13.8173 26.8268 14.2212 27.2307 14.6251C27.3582 14.7739 27.4433 14.7526 27.5708 14.6038C28.9525 13.2221 30.3343 11.8404 31.716 10.4586C32.0774 10.0973 32.4388 9.75714 32.7789 9.39576C32.8639 9.31073 32.9277 9.28947 33.034 9.39576C33.1828 9.56582 33.3528 9.71462 33.5016 9.86342C33.7992 10.161 34.0968 10.4374 34.4369 10.7562Z" transform="translate(0.956543 2.58716)" fill="#F3E737"/>
<path d="M33.371 8.43672C33.0309 8.11786 32.7545 7.82025 32.4569 7.54391C32.3081 7.39511 32.1381 7.24631 31.9893 7.07625C31.9043 6.96996 31.8405 6.99122 31.7342 7.07625C31.3941 7.43762 31.0327 7.77774 30.6713 8.13912C29.2896 9.52084 27.9079 10.9026 26.5261 12.2843C26.3986 12.4118 26.3136 12.4331 26.186 12.3056C25.7821 11.9017 25.3782 11.4978 24.9531 11.0939C24.8468 10.9876 24.8043 10.8813 24.8043 10.7325C24.8043 9.62713 24.8043 8.50049 24.8043 7.33134C24.613 7.52265 24.4642 7.67145 24.3154 7.82025C24.0178 8.11786 23.6989 8.43672 23.4013 8.73432C23.295 8.84061 23.2525 8.9469 23.2525 9.0957C23.2525 10.3924 23.2525 11.6891 23.2525 13.0071C23.2525 13.1984 23.1887 13.3472 23.0612 13.4747C22.4447 14.0699 21.8495 14.6864 21.2543 15.2603C21.1055 15.4091 21.1055 15.4729 21.2543 15.6217C24.8893 19.2567 28.5243 22.8917 32.1593 26.5055C32.3294 26.6755 32.3294 26.7606 32.1593 26.9306C30.7989 28.2699 29.4597 29.6091 28.1204 30.9695C27.9716 31.1183 27.8866 31.0971 27.7378 30.9695C25.2082 28.4399 22.6786 25.9103 20.1489 23.3807C19.0435 22.2753 17.9382 21.1699 16.8328 20.0645C16.684 19.9157 16.6202 19.937 16.4927 20.0645C13.7505 22.8067 11.0083 25.5276 8.26605 28.2698C7.3945 29.1414 6.52295 29.9917 5.67265 30.8632C5.54511 30.9908 5.46008 31.0333 5.31128 30.8632C3.9508 29.5028 2.59033 28.1423 1.22986 26.7818C1.08106 26.6543 1.08106 26.5693 1.22986 26.4205C4.18464 23.4869 7.11815 20.5534 10.0517 17.5986C10.7106 16.9397 11.3909 16.2594 12.0711 15.6005C12.2199 15.4517 12.2199 15.3666 12.0711 15.2391C11.4334 14.6226 10.8382 14.0062 10.2005 13.3897C10.0942 13.2834 10.0517 13.1771 10.0517 13.0071C10.0517 11.6891 10.0517 10.3711 10.0517 9.05318C10.0517 8.90438 10.0092 8.79809 9.90287 8.69181C9.45646 8.2454 9.01006 7.799 8.5424 7.33134C8.45737 7.41636 8.49988 7.50139 8.49988 7.56517C8.49988 8.58552 8.49988 9.62713 8.49988 10.6475C8.49988 10.8175 8.45737 10.9238 8.32982 11.0514C7.92593 11.434 7.5433 11.8166 7.16067 12.2205C7.01187 12.3693 6.92684 12.4118 6.75678 12.2205C5.05619 10.4987 3.33434 8.79809 1.63375 7.0975C1.48495 6.9487 1.39992 6.9487 1.25112 7.0975C0.847228 7.50139 0.422081 7.86277 0.0181911 8.2454C-0.0243236 8.11786 0.018191 7.88403 0.0394484 7.69271C0.294537 5.22685 1.22986 3.07986 3.07925 1.37927C3.802 0.720291 4.6523 0.231371 5.63014 0.0825696C7.13941 -0.151262 8.47863 0.295144 9.58401 1.29424C10.6469 2.27208 11.6247 3.31369 12.6451 4.33404C13.3891 5.07805 14.1331 5.82206 14.8771 6.56607C15.0259 6.71487 15.0472 6.77864 14.8771 6.9487C14.5157 7.26756 14.1969 7.62894 13.8355 7.96906C13.7505 8.05409 13.7292 8.11786 13.8355 8.20289C14.7283 9.0957 15.6211 9.96725 16.5139 10.8601C16.6202 10.9663 16.684 10.9451 16.769 10.8388C17.4067 10.1798 18.0657 9.5421 18.7247 8.90438C18.9585 8.67055 19.1923 8.43672 19.4262 8.20289C19.5325 8.0966 19.5112 8.03283 19.4262 7.9478C19.0648 7.60768 18.7247 7.22505 18.3633 6.88493C18.2358 6.77864 18.257 6.71487 18.3633 6.60858C20.1064 4.88674 21.807 3.12237 23.5714 1.42178C25.357 -0.300063 28.0354 -0.640181 30.2674 1.42178C31.9042 2.95232 32.8608 4.82296 33.2435 7.03373C33.3072 7.50139 33.3498 7.9478 33.371 8.43672Z" transform="translate(2.02246 4.90649)" fill="#1B1A1A"/>
</svg>
