<svg xmlns="http://www.w3.org/2000/svg" viewBox="0 0 130.89 35"><defs><style>.a{fill:#fff200;}.b{fill:#fc0303;}</style></defs><title>logo_en</title><path d="M0,0.6H34.4V35H0V0.6Z" transform="translate(0 0)"/><path class="a" d="M1,1.59H33.41V34H1V1.59Z" transform="translate(0 0)"/><path class="b" d="M2.71,27.46l4.23,4.31,9.91-10.05L27.09,32l4.29-4.25L21.24,17.59l1.95-1.89v-4l1.22-1V13.8L26,15.08l4.7-4.7,1.51,1.16C33.1,8.25,27.94.76,23.67,4.91l-5,4.93,1,1.22-2.53,2.47-2.45-2.4L16,10,10.57,4.7c-4.1-3.38-8.31,1.76-8.46,6.78l1.49-1.24,4.58,4.93L9.82,13.8v-3l1,0.77v4l2,2Z" transform="translate(0 0)"/><path d="M88.28,15.54c3.25,0,4.46-1.37,5.16-3.34H90.15a1.92,1.92,0,0,1-3.56-1h7c0-3.81-2-5.62-5.26-5.62A5,5,0,0,0,83,10.61,5.06,5.06,0,0,0,88.28,15.54Zm1.47-6.59H87.06C87.1,7.81,89.59,7.81,89.76,8.95Z" transform="translate(0 0)"/><path d="M43.19,10.88l3.11,4.39h4.31L46.77,9.86c4.44-2.16,2.78-8-1.89-8.1H39.54V15.27h3.65V10.88Zm0-6.16h1.28c1.28,0.12,1.76,2.65,0,3H43.19v-3Z" transform="translate(0 0)"/><rect x="63.81" y="5.88" width="3.79" height="9.39"/><path d="M69.61,15.27h3.67V8.87h3.44v6.4h3.79V8.83h2.36V5.92H80.41V3.83c-0.06-.77,1.74-1.08,2.36-0.46V0.31c-3.48-1.1-6.3.87-6.28,3.92V5.88H73.26V3.83c0-.77,1.53-1.08,2.45-0.46V0.31c-3-.89-6.26.58-6.24,3.9V5.86l-1.16,0v3h1.31v6.4Z" transform="translate(0 0)"/><path d="M65.72,4.53a2,2,0,1,0-2-2A2,2,0,0,0,65.72,4.53Z" transform="translate(0 0)"/><path d="M55.64,15.54a4.68,4.68,0,0,0,2.69-.85l0,0.58h3.61l0-9.39H58.34V6.4a4.69,4.69,0,0,0-2.69-.87,4.94,4.94,0,0,0-4.83,5A4.92,4.92,0,0,0,55.64,15.54Zm0.77-7a2.11,2.11,0,0,1,2.18,2,2.17,2.17,0,0,1-4.33,0A2.1,2.1,0,0,1,56.41,8.51Z" transform="translate(0 0)"/><path d="M96.39,0.51a2,2,0,1,0,2,2A2,2,0,0,0,96.39.51Z" transform="translate(0 0)"/><rect x="94.5" y="5.88" width="3.79" height="9.39"/><path d="M106,9.38c-2.2-.31-2-0.75-2-1s1.33-.48,2.74,0l1.12-2.28a10.27,10.27,0,0,0-3.79-.54c-3.46,0-4.66,4.08-2.55,5.39,1.18,0.89,3.13.52,3,1.58-0.12.85-1.78,0.35-3.5-.5l-1.22,2.45a8.33,8.33,0,0,0,3.75,1.1C109,16,109.28,9.9,106,9.38Z" transform="translate(0 0)"/><path d="M114.11,5.55a5,5,0,0,0-5.26,5.06,5.06,5.06,0,0,0,5.26,4.93c3.27,0,4.48-1.37,5.18-3.34H116a1.92,1.92,0,0,1-3.56-1h7C119.37,7.35,117.36,5.55,114.11,5.55Zm-1.22,3.4c0-1.14,2.53-1.14,2.69,0h-2.69Z" transform="translate(0 0)"/><path d="M124.22,6.59V5.88h-3.4v9.39h3.54V9.53c0.1-1.43,2.92-1.68,2.94,0v5.74h3.58V9.38C130.81,6.09,127.35,4.49,124.22,6.59Z" transform="translate(0 0)"/><path d="M57.88,21.09L50.65,35h4.06l1.22-2.45h4.6L61.22,35H65L61.72,21.09H57.88Zm-0.62,8.5L59,25.92l0.81,3.67H57.26Z" transform="translate(0 0)"/><path d="M49.14,27.37c2.76-2.55,1.35-6.38-1.62-6.42L41.63,21,39.27,34.94H46C50.5,34.94,52.37,29.3,49.14,27.37Zm-4-3h0.62c1.72,0,.89,2-0.54,1.89l-0.48,0Zm0.29,7.3H43.87l0.48-2.3H46C47,29.32,47.19,31.7,45.43,31.62Z" transform="translate(0 0)"/><polygon points="77.22 29.73 71.85 20.97 67.97 20.97 66.25 35 70.01 35 70.96 26.27 76.33 34.96 80.35 34.96 82.03 21.01 78.27 21.01 77.22 29.73"/><polygon points="92.22 20.95 87.79 25.88 88.49 20.95 84.72 20.97 82.09 34.96 86.05 34.96 87.1 29.73 90.65 34.96 95.85 34.96 90.77 27.62 97.26 20.95 92.22 20.95"/></svg>